<mxfile host="app.diagrams.net" modified="2024-03-22T14:22:01.908Z" agent="Mozilla/5.0 (Windows NT 10.0; Win64; x64; rv:123.0) Gecko/20100101 Firefox/123.0" version="24.0.8" etag="GZukTbALF3zFf7R05Ce_" type="github">
  <diagram name="Page-1" id="Se2s6H52jXkW5sEoz1QK">
    <mxGraphModel>
      <root>
        <mxCell id="0" />
        <mxCell id="1" parent="0" />
      </root>
    </mxGraphModel>
  </diagram>
</mxfile>
